<svg width="100" height="140" viewBox="0 0 100 140" fill="none" xmlns="http://www.w3.org/2000/svg">
<path d="M30.202 138.5C21.9409 138.5 16.5097 129.878 20.0774 122.427L70.1857 17.7761C72.0221 13.9408 75.8969 11.5 80.1493 11.5C88.2642 11.5 93.6095 19.9569 90.1275 27.2868L40.3415 132.091C38.482 136.006 34.5355 138.5 30.202 138.5Z" stroke="#1BEBB9" stroke-width="3"/>
<path d="M8.72447 111.779C4.68008 120.226 10.837 130 20.202 130C25.1146 130 29.5884 127.172 31.6964 122.735L81.4824 17.9305C85.4372 9.60524 79.3661 0 70.1493 0C65.3195 0 60.9186 2.7722 58.8328 7.12832L8.72447 111.779Z" fill="#98A7B9"/>
</svg>
