<svg width="32" height="32" viewBox="0 0 32 32" fill="none" xmlns="http://www.w3.org/2000/svg">
    <rect width="32" height="32" rx="16" fill="#F63135"/>
    <g clip-path="url(#clip0_170_721)">
        <path d="M16 22C20.707 22 23.744 16.716 23.871 16.492C24.042 16.188 24.043 15.816 23.872 15.512C23.746 15.287 20.731 10 16 10C11.245 10 8.251 15.289 8.126 15.514C7.957 15.817 7.958 16.186 8.128 16.489C8.254 16.713 11.269 22 16 22ZM16 12C18.839 12 21.036 14.835 21.818 16C21.034 17.166 18.837 20 16 20C13.159 20 10.962 17.162 10.181 15.999C10.958 14.835 13.146 12 16 12Z" fill="white"/>
        <path d="M16 18C17.1046 18 18 17.1046 18 16C18 14.8954 17.1046 14 16 14C14.8954 14 14 14.8954 14 16C14 17.1046 14.8954 18 16 18Z" fill="white"/>
    </g>
    <defs>
        <clipPath id="clip0_170_721">
            <rect width="16" height="16" fill="white" transform="translate(8 8)"/>
        </clipPath>
    </defs>
</svg>
