<svg width="12" height="12" viewBox="0 0 12 12" fill="none" xmlns="http://www.w3.org/2000/svg">
    <path d="M3.5 1H0.5C0.223858 1 0 1.22386 0 1.5V4.5C0 4.77614 0.223858 5 0.5 5H3.5C3.77614 5 4 4.77614 4 4.5V1.5C4 1.22386 3.77614 1 3.5 1Z" fill="#FF9254"/>
    <path d="M11.5 2H6.5C6.22386 2 6 2.22386 6 2.5V3.5C6 3.77614 6.22386 4 6.5 4H11.5C11.7761 4 12 3.77614 12 3.5V2.5C12 2.22386 11.7761 2 11.5 2Z" fill="#FF9254"/>
    <path d="M3.5 7H0.5C0.223858 7 0 7.22386 0 7.5V10.5C0 10.7761 0.223858 11 0.5 11H3.5C3.77614 11 4 10.7761 4 10.5V7.5C4 7.22386 3.77614 7 3.5 7Z" fill="#FF9254"/>
    <path d="M11.5 8H6.5C6.22386 8 6 8.22386 6 8.5V9.5C6 9.77614 6.22386 10 6.5 10H11.5C11.7761 10 12 9.77614 12 9.5V8.5C12 8.22386 11.7761 8 11.5 8Z" fill="#FF9254"/>
</svg>
